<?xml version="1.0" standalone="no"?><svg xmlns="http://www.w3.org/2000/svg" viewBox="0 0 1440 320"><path fill="#f0d432" fill-opacity="1" d="M0,96L30,85.3C60,75,120,53,180,69.3C240,85,300,139,360,149.3C420,160,480,128,540,122.7C600,117,660,139,720,149.3C780,160,840,160,900,149.3C960,139,1020,117,1080,96C1140,75,1200,53,1260,64C1320,75,1380,117,1410,138.7L1440,160L1440,0L1410,0C1380,0,1320,0,1260,0C1200,0,1140,0,1080,0C1020,0,960,0,900,0C840,0,780,0,720,0C660,0,600,0,540,0C480,0,420,0,360,0C300,0,240,0,180,0C120,0,60,0,30,0L0,0Z"></path></svg>